<svg xmlns="http://www.w3.org/2000/svg" width="49.422" height="51.121" viewBox="0 0 49.422 51.121">
  <path id="Vector" d="M41.935,20.577V17.224c0-4.272,0-17.224-17.224-17.224S7.487,12.953,7.487,17.224v3.353C1.883,21.817,0,25.446,0,33.3v4.593C0,48,3.123,51.121,13.228,51.121H36.194c10.1,0,13.228-3.123,13.228-13.228V33.3C49.422,25.446,47.539,21.817,41.935,20.577ZM24.711,40.649A5.052,5.052,0,1,1,29.763,35.6,5.038,5.038,0,0,1,24.711,40.649ZM35.045,20.072H14.376V17.224c0-6.706,1.654-10.334,10.334-10.334s10.334,3.629,10.334,10.334Z" fill="#fff"/>
</svg>
