<svg xmlns="http://www.w3.org/2000/svg" width="35.792" height="35.792" viewBox="0 0 35.792 35.792">
  <g id="vuesax_twotone_ticket" data-name="vuesax/twotone/ticket" transform="translate(0 0)">
    <g id="ticket" transform="translate(0 0)">
      <path id="Vector" d="M26.1,12.676a3.73,3.73,0,0,1,3.728-3.728V7.457C29.827,1.491,28.335,0,22.37,0H7.457C1.491,0,0,1.491,0,7.457V8.2a3.73,3.73,0,0,1,3.728,3.728A3.73,3.73,0,0,1,0,15.659V16.4c0,5.965,1.491,7.457,7.457,7.457H22.37c5.965,0,7.457-1.491,7.457-7.457A3.73,3.73,0,0,1,26.1,12.676Z" transform="translate(2.983 5.965)" fill="none" stroke="#e62633" stroke-linecap="round" stroke-linejoin="round" stroke-width="1.5"/>
      <path id="Vector-2" data-name="Vector" d="M0,0V23.861" transform="translate(14.913 5.965)" fill="none" stroke="#e62633" stroke-linecap="round" stroke-linejoin="round" stroke-width="1.5" stroke-dasharray="5 5" opacity="0.4"/>
      <path id="Vector-3" data-name="Vector" d="M0,0H35.792V35.792H0Z" fill="none" opacity="0"/>
    </g>
  </g>
</svg>
