<svg xmlns="http://www.w3.org/2000/svg" width="24" height="24" viewBox="0 0 24 24">
  <g id="vuesax_linear_tag-user" data-name="vuesax/linear/tag-user" transform="translate(-556 -252)">
    <g id="tag-user" transform="translate(556 252)">
      <path id="Vector" d="M14.96,16.833H14.2a2.978,2.978,0,0,0-2.114.869l-1.705,1.687a2.015,2.015,0,0,1-2.822,0L5.854,17.7a3,3,0,0,0-2.114-.869H2.992A2.977,2.977,0,0,1,0,13.868V2.965A2.977,2.977,0,0,1,2.992,0H14.96a2.977,2.977,0,0,1,2.992,2.965V13.858A2.985,2.985,0,0,1,14.96,16.833Z" transform="translate(3.024 2.016)" fill="none" stroke="#fff" stroke-linecap="round" stroke-linejoin="round" stroke-width="1.5"/>
      <g id="Group" transform="translate(8.222 5.016)">
        <path id="Vector-2" data-name="Vector" d="M2.046,3.931H1.9A1.966,1.966,0,1,1,3.931,1.966,1.939,1.939,0,0,1,2.046,3.931Z" transform="translate(1.802)" fill="none" stroke="#fff" stroke-linecap="round" stroke-linejoin="round" stroke-width="1.5"/>
        <path id="Vector-3" data-name="Vector" d="M1.006.756a1.821,1.821,0,0,0,0,3.256,5.414,5.414,0,0,0,5.544,0,1.821,1.821,0,0,0,0-3.256A5.46,5.46,0,0,0,1.006.756Z" transform="translate(0 6.21)" fill="none" stroke="#fff" stroke-linecap="round" stroke-linejoin="round" stroke-width="1.5"/>
      </g>
      <path id="Vector-4" data-name="Vector" d="M0,0H24V24H0Z" fill="none" opacity="0"/>
    </g>
  </g>
</svg>
