<svg id="vuesax_linear_pause-circle" data-name="vuesax/linear/pause-circle" xmlns="http://www.w3.org/2000/svg" width="32" height="32" viewBox="0 0 32 32">
  <g id="pause-circle">
    <path id="Vector" d="M26.654,13.327A13.327,13.327,0,1,1,13.327,0,13.327,13.327,0,0,1,26.654,13.327Z" transform="translate(2.633 2.673)" fill="none" stroke="#fff" stroke-linecap="round" stroke-linejoin="round" stroke-width="1.5"/>
    <path id="Vector-2" data-name="Vector" d="M3.635,7.658V.9c0-.641-.267-.9-.949-.9H.949C.267,0,0,.254,0,.9V7.658c0,.641.267.9.949.9H2.673C3.368,8.553,3.635,8.3,3.635,7.658Z" transform="translate(10.664 11.723)" fill="none" stroke="#fff" stroke-linecap="round" stroke-linejoin="round" stroke-width="1.5"/>
    <path id="Vector-3" data-name="Vector" d="M3.622,7.658V.9c0-.641-.267-.9-.949-.9H.949C.267,0,0,.254,0,.9V7.658c0,.641.267.9.949.9H2.673C3.354,8.553,3.622,8.3,3.622,7.658Z" transform="translate(17.715 11.723)" fill="none" stroke="#fff" stroke-linecap="round" stroke-linejoin="round" stroke-width="1.5"/>
    <path id="Vector-4" data-name="Vector" d="M0,0H32V32H0Z" fill="none" opacity="0"/>
  </g>
</svg>
