<svg id="vuesax_twotone_calendar" data-name="vuesax/twotone/calendar" xmlns="http://www.w3.org/2000/svg" width="33" height="33" viewBox="0 0 33 33">
  <g id="calendar" transform="translate(0)">
    <path id="Vector" d="M0,0V4.358" transform="translate(11 2.905)" fill="none" stroke="#e62633" stroke-linecap="round" stroke-linejoin="round" stroke-width="2"/>
    <path id="Vector-2" data-name="Vector" d="M0,0V4.358" transform="translate(22 2.905)" fill="none" stroke="#e62633" stroke-linecap="round" stroke-linejoin="round" stroke-width="2"/>
    <path id="Vector-3" data-name="Vector" d="M0,0H22.832" transform="translate(5.084 12.499)" fill="none" stroke="#e62633" stroke-linecap="round" stroke-linejoin="round" stroke-width="2" opacity="0.4"/>
    <path id="Vector-4" data-name="Vector" d="M24.285,6.862V18.527c0,4.117-2.024,6.862-6.746,6.862H6.746C2.024,25.389,0,22.644,0,18.527V6.862C0,2.745,2.024,0,6.746,0H17.539C22.261,0,24.285,2.745,24.285,6.862Z" transform="translate(4.358 4.706)" fill="none" stroke="#e62633" stroke-linecap="round" stroke-linejoin="round" stroke-width="2"/>
    <path id="Vector-5" data-name="Vector" d="M0,0H33V33H0Z" fill="none" opacity="0"/>
    <path id="Vector-6" data-name="Vector" d="M.495.5H.508" transform="translate(21.085 18.338)" fill="none" stroke="#e62633" stroke-linecap="round" stroke-linejoin="round" stroke-width="2" opacity="0.4"/>
    <path id="Vector-7" data-name="Vector" d="M.495.5H.508" transform="translate(21.085 22.463)" fill="none" stroke="#e62633" stroke-linecap="round" stroke-linejoin="round" stroke-width="2" opacity="0.4"/>
    <path id="Vector-8" data-name="Vector" d="M.495.5H.508" transform="translate(15.999 18.338)" fill="none" stroke="#e62633" stroke-linecap="round" stroke-linejoin="round" stroke-width="2" opacity="0.4"/>
    <path id="Vector-9" data-name="Vector" d="M.495.5H.508" transform="translate(15.999 22.463)" fill="none" stroke="#e62633" stroke-linecap="round" stroke-linejoin="round" stroke-width="2" opacity="0.4"/>
    <path id="Vector-10" data-name="Vector" d="M.495.5H.508" transform="translate(10.91 18.338)" fill="none" stroke="#e62633" stroke-linecap="round" stroke-linejoin="round" stroke-width="2" opacity="0.4"/>
    <path id="Vector-11" data-name="Vector" d="M0,0H.013" transform="translate(11.404 22.963)" fill="none" stroke="#e62633" stroke-linecap="round" stroke-linejoin="round" stroke-width="2" opacity="0.4"/>
  </g>
</svg>
